{ "asset": { "version": "2.0"},
  "scene": 0,
  "scenes": [{ "nodes": [ 0 ]}],
  "nodes": [{ "mesh": 0 }],
  "meshes": [
    { "primitives": [{ "mode": 5, "indices": 0, "attributes": { "POSITION": 1 }}]}
  ], "accessors": [
    { "bufferView": 0, "byteOffset": 0, "count": 238, "componentType": 5123, "type": "SCALAR", "min": [ 0 ], "max": [ 179 ]},
    { "bufferView": 1, "byteOffset": 0, "count": 180, "componentType": 5126, "type": "VEC3", "min": [ -184.511276, -0.000002, -130.469162 ], "max": [ 194.382568, 0.000001, 112.148590 ]}
  ], "bufferViews": [
    { "buffer": 0, "byteLength": 476, "byteOffset": 2160, "target": 34963 },
    { "buffer": 0, "byteLength": 2160, "byteOffset": 0, "target": 34962, "byteStride": 12 }
  ], "buffers": [
    { "byteLength": 2636, "uri": "free06_rut_e_a_dxg_vb_ib.hex" }
  ]
}
